<svg width="24" height="16" viewBox="0 0 24 16" fill="none" xmlns="http://www.w3.org/2000/svg">
<path d="M22.5 14.2501H21.75V2.42824L22.6566 2.23324C22.755 2.21479 22.8487 2.17682 22.9321 2.12159C23.0156 2.06635 23.0872 1.99496 23.1427 1.91162C23.1981 1.82828 23.2364 1.73468 23.2551 1.63634C23.2738 1.53799 23.2726 1.4369 23.2517 1.33901C23.2307 1.24112 23.1904 1.14842 23.133 1.06638C23.0756 0.984329 23.0024 0.914595 22.9177 0.861285C22.833 0.807974 22.7384 0.772167 22.6396 0.755972C22.5408 0.739778 22.4398 0.743525 22.3425 0.766992L1.3425 5.26699C1.16159 5.30603 1.00149 5.41058 0.89302 5.56054C0.784545 5.7105 0.735349 5.89527 0.754894 6.07932C0.774438 6.26336 0.861343 6.43368 0.998893 6.55751C1.13644 6.68134 1.31492 6.74994 1.5 6.75012C1.55326 6.75002 1.60636 6.74437 1.65844 6.73324L2.25 6.60668V14.2501H1.5C1.30109 14.2501 1.11032 14.3291 0.96967 14.4698C0.829018 14.6104 0.75 14.8012 0.75 15.0001C0.75 15.199 0.829018 15.3898 0.96967 15.5304C1.11032 15.6711 1.30109 15.7501 1.5 15.7501H22.5C22.6989 15.7501 22.8897 15.6711 23.0303 15.5304C23.171 15.3898 23.25 15.199 23.25 15.0001C23.25 14.8012 23.171 14.6104 23.0303 14.4698C22.8897 14.3291 22.6989 14.2501 22.5 14.2501ZM3.75 6.28137L20.25 2.7498V14.2501H18V9.00012C18 8.8012 17.921 8.61044 17.7803 8.46979C17.6397 8.32913 17.4489 8.25012 17.25 8.25012H6.75C6.55109 8.25012 6.36032 8.32913 6.21967 8.46979C6.07902 8.61044 6 8.8012 6 9.00012V14.2501H3.75V6.28137ZM16.5 11.2501H7.5V9.75012H16.5V11.2501ZM7.5 12.7501H16.5V14.2501H7.5V12.7501Z" fill="#158BE3"/>
</svg>
